<?xml version="1.0" encoding="UTF-8" standalone="no"?>
<svg
   xmlns:dc="http://purl.org/dc/elements/1.1/"
   xmlns:cc="http://creativecommons.org/ns#"
   xmlns:rdf="http://www.w3.org/1999/02/22-rdf-syntax-ns#"
   xmlns:svg="http://www.w3.org/2000/svg"
   xmlns="http://www.w3.org/2000/svg"
   xmlns:sodipodi="http://sodipodi.sourceforge.net/DTD/sodipodi-0.dtd"
   xmlns:inkscape="http://www.inkscape.org/namespaces/inkscape"
   height="512"
   viewBox="0 0 64 64"
   width="512"
   version="1.1"
   id="svg47"
   sodipodi:docname="login.svg"
   inkscape:version="0.92.4 (5da689c313, 2019-01-14)"
   inkscape:export-filename="C:\xampp\htdocs\dashboard\consultorio\img\login.png"
   inkscape:export-xdpi="96"
   inkscape:export-ydpi="96">
  <metadata
     id="metadata53">
    <rdf:RDF>
      <cc:Work
         rdf:about="">
        <dc:format>image/svg+xml</dc:format>
        <dc:type
           rdf:resource="http://purl.org/dc/dcmitype/StillImage" />
      </cc:Work>
    </rdf:RDF>
  </metadata>
  <defs
     id="defs51" />
  <sodipodi:namedview
     pagecolor="#ffffff"
     bordercolor="#666666"
     borderopacity="1"
     objecttolerance="10"
     gridtolerance="10"
     guidetolerance="10"
     inkscape:pageopacity="0"
     inkscape:pageshadow="2"
     inkscape:window-width="1920"
     inkscape:window-height="1001"
     id="namedview49"
     showgrid="false"
     inkscape:zoom="1.4908447"
     inkscape:cx="84.961556"
     inkscape:cy="309.66085"
     inkscape:window-x="-9"
     inkscape:window-y="-9"
     inkscape:window-maximized="1"
     inkscape:current-layer="Login" />
  <g
     id="Login"
     transform="translate(-0.25153525,-1.8445918)">
    <path
       d="M 59,3 H 5 A 2,2 0 0 0 3,5 v 6 H 61 V 5 A 2,2 0 0 0 59,3 Z"
       id="path2"
       inkscape:connector-curvature="0"
       style="fill:#ffd42a" />
    <path
       d="m 61,11 v 48 a 2.006,2.006 0 0 1 -2,2 H 5 A 2.006,2.006 0 0 1 3,59 V 11 Z"
       id="path4"
       inkscape:connector-curvature="0"
       style="fill:#e6e6e6" />
    <path
       d="m 14,61 h 45 a 2.006,2.006 0 0 0 2,-2 V 25 C 61,44.9 39.979,61 14,61 Z"
       id="path6"
       inkscape:connector-curvature="0"
       style="fill:#ffffff" />
    <path
       d="m 29,31 h 28 v 8 H 29 Z"
       id="path8"
       inkscape:connector-curvature="0"
       style="fill:#ffcd00" />
    <path
       d="m 29,43 h 28 v 8 H 29 Z"
       id="path10"
       inkscape:connector-curvature="0"
       style="fill:#ffcd00" />
    <path
       d="M 25,43 A 4,4 0 0 0 21,39 H 11 a 4,4 0 0 0 -4,4 v 8 h 18 z"
       id="path12"
       inkscape:connector-curvature="0"
       style="fill:#ffd42a" />
    <circle
       cx="16"
       cy="32"
       r="4"
       id="circle14"
       style="fill:#ffd42a" />
    <g
       id="g44"
       style="fill:#231f20">
      <path
         d="M 59,2 H 5 A 3,3 0 0 0 2,5 v 54 a 3,3 0 0 0 3,3 h 54 a 3,3 0 0 0 3,-3 V 5 A 3,3 0 0 0 59,2 Z M 5,4 h 54 a 1,1 0 0 1 1,1 v 5 H 4 V 5 A 1,1 0 0 1 5,4 Z M 59,60 H 5 A 1,1 0 0 1 4,59 V 12 h 56 v 47 a 1,1 0 0 1 -1,1 z"
         id="path16"
         inkscape:connector-curvature="0" />
      <path
         d="M 7,8 H 8 A 1,1 0 0 0 8,6 H 7 a 1,1 0 0 0 0,2 z"
         id="path18"
         inkscape:connector-curvature="0" />
      <path
         d="m 12,8 h 1 a 1,1 0 0 0 0,-2 h -1 a 1,1 0 0 0 0,2 z"
         id="path20"
         inkscape:connector-curvature="0" />
      <path
         d="m 17,8 h 1 a 1,1 0 0 0 0,-2 h -1 a 1,1 0 0 0 0,2 z"
         id="path22"
         inkscape:connector-curvature="0" />
      <path
         d="M 57,30 H 29 a 1,1 0 0 0 -1,1 v 8 a 1,1 0 0 0 1,1 h 28 a 1,1 0 0 0 1,-1 v -8 a 1,1 0 0 0 -1,-1 z m -1,8 H 30 v -6 h 26 z"
         id="path24"
         inkscape:connector-curvature="0" />
      <path
         d="M 57,42 H 29 a 1,1 0 0 0 -1,1 v 8 a 1,1 0 0 0 1,1 h 28 a 1,1 0 0 0 1,-1 v -8 a 1,1 0 0 0 -1,-1 z m -1,8 H 30 v -6 h 26 z"
         id="path26"
         inkscape:connector-curvature="0" />
      <path
         d="M 21,38 H 11 a 5.006,5.006 0 0 0 -5,5 v 8 a 1,1 0 0 0 1,1 h 18 a 1,1 0 0 0 1,-1 v -8 a 5.006,5.006 0 0 0 -5,-5 z m 3,12 H 8 v -7 a 3,3 0 0 1 3,-3 h 10 a 3,3 0 0 1 3,3 z"
         id="path28"
         inkscape:connector-curvature="0" />
      <path
         d="m 16,37 a 5,5 0 1 0 -5,-5 5.006,5.006 0 0 0 5,5 z m 0,-8 a 3,3 0 1 1 -3,3 3,3 0 0 1 3,-3 z"
         id="path30"
         inkscape:connector-curvature="0" />
      <path
         d="m 29,25 h 4 a 1,1 0 0 0 0,-2 h -3 v -5 a 1,1 0 0 0 -2,0 v 6 a 1,1 0 0 0 1,1 z"
         id="path32"
         inkscape:connector-curvature="0" />
      <path
         d="m 37,25 a 3,3 0 1 0 -3,-3 3,3 0 0 0 3,3 z m 0,-4 a 1,1 0 1 1 -1,1 1,1 0 0 1 1,-1 z"
         id="path34"
         inkscape:connector-curvature="0" />
      <path
         d="m 44,25 a 2.966,2.966 0 0 0 1,-0.184 V 25 a 1,1 0 0 1 -1,1 h -1 a 1,1 0 0 0 0,2 h 1 a 3,3 0 0 0 3,-3 V 20 A 1,1 0 0 0 45.287,19.3 3,3 0 1 0 44,25 Z m 0,-4 a 1,1 0 1 1 -1,1 1,1 0 0 1 1,-1 z"
         id="path36"
         inkscape:connector-curvature="0" />
      <path
         d="m 49,25 a 1,1 0 0 0 1,-1 v -4 a 1,1 0 0 0 -2,0 v 4 a 1,1 0 0 0 1,1 z"
         id="path38"
         inkscape:connector-curvature="0" />
      <path
         d="m 52,25 a 1,1 0 0 0 1,-1 v -2.5 a 0.5,0.5 0 0 1 1,0 V 24 a 1,1 0 0 0 2,0 V 21.5 A 2.495,2.495 0 0 0 52.553,19.189 0.972,0.972 0 0 0 52,19 1,1 0 0 0 51,20 v 4 a 1,1 0 0 0 1,1 z"
         id="path40"
         inkscape:connector-curvature="0" />
      <circle
         cx="49"
         cy="17"
         r="1"
         id="circle42" />
    </g>
  </g>
</svg>
