<?xml version="1.0" encoding="UTF-8" standalone="no"?>
<!-- Generator: Adobe Illustrator 19.0.0, SVG Export Plug-In . SVG Version: 6.00 Build 0)  -->

<svg
   xmlns:dc="http://purl.org/dc/elements/1.1/"
   xmlns:cc="http://creativecommons.org/ns#"
   xmlns:rdf="http://www.w3.org/1999/02/22-rdf-syntax-ns#"
   xmlns:svg="http://www.w3.org/2000/svg"
   xmlns="http://www.w3.org/2000/svg"
   xmlns:sodipodi="http://sodipodi.sourceforge.net/DTD/sodipodi-0.dtd"
   xmlns:inkscape="http://www.inkscape.org/namespaces/inkscape"
   version="1.1"
   id="Capa_1"
   x="0px"
   y="0px"
   viewBox="0 0 511.999 511.999"
   style="enable-background:new 0 0 511.999 511.999;"
   xml:space="preserve"
   sodipodi:docname="olho_branco.svg"
   inkscape:version="0.92.4 (5da689c313, 2019-01-14)"><metadata
   id="metadata49"><rdf:RDF><cc:Work
       rdf:about=""><dc:format>image/svg+xml</dc:format><dc:type
         rdf:resource="http://purl.org/dc/dcmitype/StillImage" /><dc:title></dc:title></cc:Work></rdf:RDF></metadata><defs
   id="defs47" /><sodipodi:namedview
   pagecolor="#ffffff"
   bordercolor="#666666"
   borderopacity="1"
   objecttolerance="10"
   gridtolerance="10"
   guidetolerance="10"
   inkscape:pageopacity="0"
   inkscape:pageshadow="2"
   inkscape:window-width="1920"
   inkscape:window-height="1001"
   id="namedview45"
   showgrid="false"
   inkscape:zoom="1.4908477"
   inkscape:cx="255.9995"
   inkscape:cy="255.9995"
   inkscape:window-x="-9"
   inkscape:window-y="-9"
   inkscape:window-maximized="1"
   inkscape:current-layer="Capa_1" />
<g
   id="g6">
	<g
   id="g4">
		<path
   d="M508.745,246.041c-4.574-6.257-113.557-153.206-252.748-153.206S7.818,239.784,3.249,246.035    c-4.332,5.936-4.332,13.987,0,19.923c4.569,6.257,113.557,153.206,252.748,153.206s248.174-146.95,252.748-153.201    C513.083,260.028,513.083,251.971,508.745,246.041z M255.997,385.406c-102.529,0-191.33-97.533-217.617-129.418    c26.253-31.913,114.868-129.395,217.617-129.395c102.524,0,191.319,97.516,217.617,129.418    C447.361,287.923,358.746,385.406,255.997,385.406z"
   id="path2" />
	</g>
</g>
<g
   id="g12">
	<g
   id="g10">
		<path
   d="M255.997,154.725c-55.842,0-101.275,45.433-101.275,101.275s45.433,101.275,101.275,101.275    s101.275-45.433,101.275-101.275S311.839,154.725,255.997,154.725z M255.997,323.516c-37.23,0-67.516-30.287-67.516-67.516    s30.287-67.516,67.516-67.516s67.516,30.287,67.516,67.516S293.227,323.516,255.997,323.516z"
   id="path8" />
	</g>
</g>
<g
   id="g14">
</g>
<g
   id="g16">
</g>
<g
   id="g18">
</g>
<g
   id="g20">
</g>
<g
   id="g22">
</g>
<g
   id="g24">
</g>
<g
   id="g26">
</g>
<g
   id="g28">
</g>
<g
   id="g30">
</g>
<g
   id="g32">
</g>
<g
   id="g34">
</g>
<g
   id="g36">
</g>
<g
   id="g38">
</g>
<g
   id="g40">
</g>
<g
   id="g42">
</g>
<path
   style="opacity:1;fill:#ffd42a;fill-opacity:1;stroke:none;stroke-width:0.2661911;stroke-miterlimit:4;stroke-dasharray:none;stroke-opacity:1"
   d="M 234.54074,417.66377 C 172.15842,410.86884 106.69807,374.83376 45.719791,313.72026 28.090468,296.05184 5.2620801,269.64905 1.9607349,263.10955 c -1.57659981,-3.12303 -1.6025478,-11.574 -0.04428,-14.42133 1.4133907,-2.5826 13.3587081,-17.49285 20.9577201,-26.15961 45.614579,-52.02394 99.926045,-92.6933 150.286545,-112.53716 29.22476,-11.51562 54.54191,-16.584019 82.83878,-16.584019 34.79971,0 67.89528,8.254319 103.63232,25.846799 49.42792,24.33217 101.33743,67.60827 142.23566,118.57951 3.79417,4.72865 7.4268,9.70904 8.07251,11.06753 1.57139,3.30601 1.97336,8.19861 0.96845,11.78779 -2.42525,8.66215 -40.61616,51.05421 -66.44199,73.75089 -56.41672,49.58104 -112.72807,77.51727 -167.82203,83.25701 -11.85424,1.23499 -30.59648,1.22022 -42.10368,-0.0332 z m 33.84389,-32.49998 c 36.60435,-2.97237 72.77838,-16.74037 111.03459,-42.2603 30.23168,-20.16693 61.41824,-48.29545 89.13572,-80.39536 4.61625,-5.34613 5.31705,-6.46612 4.61679,-7.37835 -7.28613,-9.49171 -28.18834,-31.72102 -41.17902,-43.79349 -53.02647,-49.27845 -103.845,-76.7219 -155.19967,-83.81223 -8.2183,-1.13466 -33.33957,-1.15257 -41.2517,-0.0294 -24.73643,3.51147 -47.12689,10.72549 -71.10049,22.908 -32.62978,16.58126 -63.71072,39.89528 -95.250058,71.44768 -10.840355,10.84484 -29.099437,30.80001 -30.654087,33.50152 -1.326165,2.3045 34.702193,40.02958 54.812518,57.39388 45.985037,39.70586 92.651597,63.95883 136.209597,70.78915 14.21766,2.22947 25.56644,2.7056 38.82581,1.6289 z"
   id="path51"
   inkscape:connector-curvature="0" /><path
   style="opacity:1;fill:#ffd42a;fill-opacity:1;stroke:none;stroke-width:0.2661911;stroke-miterlimit:4;stroke-dasharray:none;stroke-opacity:1"
   d="m 242.58431,356.00484 c -19.41693,-2.65947 -38.33128,-11.26083 -52.79382,-24.00816 -17.98134,-15.84878 -29.28336,-36.09041 -33.40747,-59.83188 -1.24502,-7.16724 -1.40936,-23.27663 -0.31136,-30.51955 6.41085,-42.28894 37.83524,-75.53081 80.01406,-84.6418 9.89836,-2.13813 29.92919,-2.13813 39.82755,0 37.18865,8.03307 66.65675,35.22594 77.05399,71.10466 4.94103,17.05043 5.01629,37.66536 0.20128,55.12422 -13.20799,47.89111 -61.27941,79.52563 -110.58423,72.77251 z m 24.6856,-33.27107 c 17.18589,-2.478 34.45258,-13.44646 44.53122,-28.28792 4.03377,-5.93999 8.35744,-15.53352 10.05992,-22.32134 1.23299,-4.91596 1.50539,-7.87006 1.51164,-16.39332 0.007,-9.25831 -0.19139,-11.11453 -1.80979,-16.95166 -6.72778,-24.26512 -24.85766,-42.17178 -49.1298,-48.5249 -5.74841,-1.50462 -8.09841,-1.75568 -16.4336,-1.75568 -8.27225,0 -10.69911,0.25543 -16.23628,1.7089 -24.35609,6.3933 -42.62044,24.28974 -49.21343,48.22208 -2.54547,9.23994 -2.92969,21.27395 -0.98018,30.69987 4.97977,24.07741 21.99596,43.52184 44.59344,50.95699 11.39591,3.74954 20.44335,4.47291 33.10686,2.64698 z"
   id="path53"
   inkscape:connector-curvature="0" /><path
   style="opacity:1;fill:#ffffff;fill-opacity:1;stroke:none;stroke-width:0.2661911;stroke-miterlimit:4;stroke-dasharray:none;stroke-opacity:1"
   d="m 237.21823,417.63003 c -0.92229,-0.13322 -4.39347,-0.57305 -7.71373,-0.97741 -15.05423,-1.83334 -35.46202,-7.0672 -51.64847,-13.24594 C 137.00784,387.81397 99.168811,363.1921 59.027809,326.08512 37.040481,305.75968 5.5556638,270.43654 2.1403084,262.26245 0.85993521,259.19809 0.80469999,252.37734 2.036998,249.50512 c 1.0794516,-2.51596 13.050438,-17.56247 22.796616,-28.65341 15.059121,-17.13696 34.97617,-36.50731 53.079276,-51.62233 52.6,-43.91787 105.96843,-69.245025 156.96028,-74.48894 16.64888,-1.712143 42.62396,-0.653059 59.35961,2.420274 44.02169,8.084136 92.75716,32.940186 137.82654,70.294226 24.92855,20.66108 50.23044,46.38103 69.60612,70.7562 8.08454,10.17058 9.1882,12.3553 9.20788,18.22718 0.0169,5.03978 -0.90824,6.83542 -8.62069,16.73262 -9.95932,12.78053 -33.35765,38.10921 -46.94354,50.81637 -58.82145,55.01685 -118.01357,86.24585 -176.42263,93.07833 -7.63371,0.89296 -36.67083,1.28627 -41.66823,0.56439 z M 274.11,384.80688 c 47.41518,-5.498 94.37846,-28.73811 144.06955,-71.29383 18.805,-16.10469 55.14597,-53.89056 55.14597,-57.33853 0,-3.66447 -31.94865,-37.34379 -52.14622,-54.971 -41.90385,-36.57113 -82.39397,-59.62592 -122.17676,-69.56662 -17.65492,-4.41152 -22.2748,-4.95541 -42.33228,-4.98375 -20.32973,-0.0287 -24.44806,0.42603 -41.92246,4.62912 -38.86548,9.34825 -79.64951,31.82555 -119.395167,65.80227 -11.283319,9.64558 -37.183008,35.26685 -48.238138,47.71958 -9.979588,11.24122 -9.440256,10.23825 -7.251209,13.48474 3.136363,4.65141 13.532915,16.03745 27.399925,30.00769 15.487598,15.60288 24.122183,23.4735 37.787839,34.44445 58.69762,47.12314 116.12003,68.20438 169.05895,62.06588 z"
   id="path139"
   inkscape:connector-curvature="0" /><path
   style="opacity:1;fill:#ffffff;fill-opacity:1;stroke:none;stroke-width:0.2661911;stroke-miterlimit:4;stroke-dasharray:none;stroke-opacity:1"
   d="m 243.59045,355.92197 c -44.08788,-6.5623 -77.70692,-38.1092 -86.32347,-81.00283 -1.99098,-9.91122 -1.9709,-28.88642 0.0407,-38.43097 7.60619,-36.08994 32.81367,-64.34917 67.84897,-76.06308 9.99651,-3.34229 18.57044,-4.62913 30.84288,-4.62913 12.34763,0 20.85107,1.28841 31.08397,4.70974 35.53669,11.88155 61.78811,42.12522 67.96216,78.29765 1.52479,8.93342 1.48946,25.79507 -0.0727,34.70297 -7.09625,40.46451 -37.97338,71.98439 -79.52139,81.17672 -4.89899,1.08388 -27.10224,1.94726 -31.86107,1.23893 z m 24.85656,-33.11894 c 19.44791,-3.132 38.34515,-17.13861 47.6041,-35.28409 6.11372,-11.98153 8.04705,-21.03239 7.5065,-35.14154 -0.40283,-10.51432 -1.71925,-15.91029 -6.13658,-25.15348 -3.7703,-7.8893 -7.30917,-12.95062 -13.28278,-18.99707 -8.77169,-8.87867 -19.3364,-14.91736 -32.05532,-18.32254 -8.08642,-2.16493 -23.95796,-2.19876 -31.9045,-0.068 -12.72422,3.41183 -23.71843,9.6872 -32.44499,18.51923 -6.03933,6.11232 -9.33003,10.83517 -13.21493,18.96619 -4.96116,10.38362 -5.85108,14.75005 -5.85852,28.74484 -0.006,11.2715 0.11571,12.47032 1.83177,18.04369 8.35536,27.13627 28.80552,44.99199 56.50933,49.34016 4.39209,0.68935 15.1648,0.36415 21.44592,-0.64739 z"
   id="path141"
   inkscape:connector-curvature="0" /></svg>