<?xml version="1.0"?>
<svg xmlns="http://www.w3.org/2000/svg" id="Capa_1" enable-background="new 0 0 512 512" height="512px" viewBox="0 0 512 512" width="512px"><g><g><path d="m336.168 400.807h-304.613c-9.125 0-16.548-7.423-16.548-16.548v-273.066h385.807v232.984c0 4.142 3.358 7.5 7.5 7.5s7.5-3.358 7.5-7.5v-280.564c0-17.396-14.152-31.548-31.548-31.548h-8.533v-8.532c-.001-12.976-10.557-23.533-23.533-23.533s-23.532 10.557-23.532 23.532v8.532h-216.952c-4.142 0-7.5 3.358-7.5 7.5s3.358 7.5 7.5 7.5h216.952v8.532c0 12.976 10.557 23.532 23.532 23.532s23.532-10.557 23.532-23.532v-8.532h8.533c9.125 0 16.548 7.423 16.548 16.548v32.581h-385.806v-32.58c0-9.125 7.423-16.548 16.548-16.548h8.532v8.532c0 12.976 10.557 23.532 23.532 23.532s23.532-10.557 23.532-23.532v-32.065c.001-12.975-10.556-23.532-23.532-23.532s-23.532 10.557-23.532 23.532v8.532h-8.532c-17.396 0-31.548 14.152-31.548 31.548v320.646c0 17.396 14.152 31.548 31.548 31.548h304.613c4.142 0 7.5-3.358 7.5-7.5s-3.358-7.499-7.5-7.499zm16.032-336.678c-4.705 0-8.532-3.828-8.532-8.532v-32.065c0-4.705 3.828-8.532 8.532-8.532s8.532 3.828 8.532 8.532v32.064c0 4.705-3.827 8.533-8.532 8.533zm-297.113-40.597c0-4.705 3.828-8.532 8.532-8.532s8.532 3.828 8.532 8.532v32.064c0 4.705-3.828 8.532-8.532 8.532s-8.532-3.828-8.532-8.532z" data-original="#000000" class="active-path" data-old_color="#000000" fill="#FFD42A"/><path d="m505.113 471.83-104.207-104.207c-4.442-4.448-10.352-6.897-16.642-6.897-3.697 0-7.26.853-10.473 2.453l-33.708-33.708c17.196-19.654 27.633-45.365 27.633-73.47 0-61.597-50.113-111.709-111.709-111.709s-111.71 50.111-111.71 111.708 50.113 111.709 111.709 111.709c28.105 0 53.816-10.437 73.47-27.633l33.728 33.728c-4.358 8.8-2.897 19.773 4.422 27.092l104.206 104.206c4.442 4.448 10.353 6.897 16.643 6.897s12.201-2.449 16.639-6.895c9.173-9.172 9.173-24.1-.001-33.274zm-249.106-119.121c-53.326 0-96.709-43.384-96.709-96.709s43.384-96.709 96.709-96.709 96.709 43.384 96.709 96.709-43.384 96.709-96.709 96.709zm119.725 31.549c0-2.277.888-4.419 2.504-6.035 1.608-1.61 3.749-2.497 6.028-2.497 2.28 0 4.42.887 6.032 2.5l10.729 10.729-12.064 12.064-10.729-10.729c-1.612-1.612-2.5-3.754-2.5-6.032zm118.771 110.245c-1.608 1.61-3.749 2.497-6.028 2.497s-4.42-.887-6.032-2.501l-82.874-82.873 12.064-12.064 82.874 82.874c3.325 3.326 3.325 8.738-.004 12.067z" data-original="#000000" class="active-path" data-old_color="#000000" fill="#FFD42A"/><path d="m323.396 213.634c-2.208-3.506-6.838-4.557-10.343-2.351-3.505 2.207-4.558 6.838-2.351 10.343 7.68 12.197 11.075 26.851 9.557 41.26-1.562 14.831-7.974 28.256-18.542 38.825-10.569 10.568-23.994 16.98-38.825 18.542-14.411 1.517-29.063-1.876-41.26-9.557-3.506-2.208-8.136-1.155-10.343 2.351-2.207 3.505-1.155 8.136 2.351 10.343 12.689 7.99 27.527 12.216 42.516 12.216 2.768 0 5.542-.144 8.307-.436 18.024-1.898 35.021-10.014 47.86-22.853s20.956-29.836 22.854-47.86c1.869-17.742-2.315-35.791-11.781-50.823z" data-original="#000000" class="active-path" data-old_color="#000000" fill="#FFD42A"/><path d="m191.754 249.114c1.562-14.831 7.974-28.256 18.542-38.825 10.569-10.569 23.994-16.98 38.825-18.542 14.41-1.517 29.063 1.876 41.26 9.557 3.506 2.208 8.135 1.155 10.343-2.351 2.207-3.505 1.155-8.136-2.351-10.343-15.032-9.465-33.08-13.648-50.823-11.781-18.024 1.898-35.021 10.014-47.86 22.854-12.839 12.839-20.955 29.836-22.853 47.86-1.868 17.741 2.315 35.791 11.781 50.823 1.426 2.264 3.862 3.505 6.354 3.505 1.366 0 2.748-.373 3.989-1.154 3.505-2.207 4.558-6.838 2.351-10.343-7.682-12.198-11.076-26.851-9.558-41.26z" data-original="#000000" class="active-path" data-old_color="#000000" fill="#FFD42A"/><path d="m63.619 136.274c-12.976 0-23.532 10.557-23.532 23.532s10.557 23.532 23.532 23.532 23.532-10.557 23.532-23.532-10.556-23.532-23.532-23.532zm0 32.065c-4.705 0-8.532-3.828-8.532-8.532s3.828-8.532 8.532-8.532 8.532 3.828 8.532 8.532-3.827 8.532-8.532 8.532z" data-original="#000000" class="active-path" data-old_color="#000000" fill="#FFD42A"/><path d="m63.619 264.532c-12.976 0-23.532 10.557-23.532 23.532s10.557 23.532 23.532 23.532 23.532-10.557 23.532-23.532-10.556-23.532-23.532-23.532zm0 32.065c-4.705 0-8.532-3.828-8.532-8.532s3.828-8.532 8.532-8.532 8.532 3.828 8.532 8.532-3.827 8.532-8.532 8.532z" data-original="#000000" class="active-path" data-old_color="#000000" fill="#FFD42A"/><path d="m63.619 328.661c-12.976 0-23.532 10.557-23.532 23.532s10.557 23.532 23.532 23.532 23.532-10.557 23.532-23.532-10.556-23.532-23.532-23.532zm0 32.065c-4.705 0-8.532-3.828-8.532-8.532s3.828-8.532 8.532-8.532 8.532 3.828 8.532 8.532-3.827 8.532-8.532 8.532z" data-original="#000000" class="active-path" data-old_color="#000000" fill="#FFD42A"/><path d="m63.619 200.403c-12.976 0-23.532 10.557-23.532 23.532s10.557 23.532 23.532 23.532 23.532-10.557 23.532-23.532-10.556-23.532-23.532-23.532zm0 32.065c-4.705 0-8.532-3.828-8.532-8.532s3.828-8.532 8.532-8.532 8.532 3.828 8.532 8.532-3.827 8.532-8.532 8.532z" data-original="#000000" class="active-path" data-old_color="#000000" fill="#FFD42A"/><path d="m167.313 159.807c0-4.142-3.358-7.5-7.5-7.5h-48.097c-4.142 0-7.5 3.358-7.5 7.5s3.358 7.5 7.5 7.5h48.097c4.142 0 7.5-3.358 7.5-7.5z" data-original="#000000" class="active-path" data-old_color="#000000" fill="#FFD42A"/><path d="m111.716 359.693h48.097c4.142 0 7.5-3.358 7.5-7.5s-3.358-7.5-7.5-7.5h-48.097c-4.142 0-7.5 3.358-7.5 7.5s3.358 7.5 7.5 7.5z" data-original="#000000" class="active-path" data-old_color="#000000" fill="#FFD42A"/><path d="m119.732 216.436h-8.016c-4.142 0-7.5 3.358-7.5 7.5s3.358 7.5 7.5 7.5h8.016c4.142 0 7.5-3.358 7.5-7.5s-3.358-7.5-7.5-7.5z" data-original="#000000" class="active-path" data-old_color="#000000" fill="#FFD42A"/><path d="m111.716 295.564h8.016c4.142 0 7.5-3.358 7.5-7.5s-3.358-7.5-7.5-7.5h-8.016c-4.142 0-7.5 3.358-7.5 7.5s3.358 7.5 7.5 7.5z" data-original="#000000" class="active-path" data-old_color="#000000" fill="#FFD42A"/></g></g> </svg>
